# xmcd
#
# Track frame offsets: 
#        183
#        16603
#        34970
#        50270
#        65553
#        82880
#        99838
#        116240
#        127383
#        140273
#        154390
#
# Disc length: 2452 seconds
#
# Revision: 10
# Processed by: cddbd v1.5.2PL0 Copyright (c) Steve Scherf et al.
# Submitted via: ExactAudioCopyFreeDBPlugin 1.0
#
DISCID=9009920b
DTITLE=Righteous Brothers - Reunion
DYEAR=1991
DGENRE=Blues
TTITLE0=Unchained Melody
TTITLE1=Just Once In My Life
TTITLE2=Rock and Roll Heaven
TTITLE3=(Youre My) Soul And Inspiration
TTITLE4=You've Lost That Lovin' Feelin'
TTITLE5=Hung On You
TTITLE6=Try To Find Another Woman
TTITLE7=Little Latin Lupe Lu
TTITLE8=Ebbtide
TTITLE9=My Babe
TTITLE10=Unchained Melody (Timeless Love Extended Version)
EXTD=YEAR: 1990
EXTT0=
EXTT1=
EXTT2=
EXTT3=
EXTT4=
EXTT5=
EXTT6=
EXTT7=
EXTT8=
EXTT9=
EXTT10=
PLAYORDER=
